HIERARCHY
ROOT pelvis
{
  OFFSET 0 100 0
  CHANNELS 6 Xposition Yposition Zposition Zrotation Xrotation Yrotation
  JOINT pelvis_right_femur
  {
    OFFSET -10.78128 -3.44521 -0.5502486
    CHANNELS 3 Zrotation Xrotation Yrotation
    JOINT right_femur_tibia
    {
      OFFSET -0.8047443 -44.0398 -0.1307829
      CHANNELS 3 Zrotation Xrotation Yrotation
      JOINT right_tibia_foot
      {
        OFFSET 3.006224 -47.83518 -5
        CHANNELS 3 Zrotation Xrotation Yrotation
        End Site
        {
          OFFSET 0 -5 15
        }
      }
    }
  }
  JOINT pelvis_left_femur
  {
    OFFSET 10.78128 -3.44521 -0.5502486
    CHANNELS 3 Zrotation Xrotation Yrotation
    JOINT left_femur_tibia
    {
      OFFSET 0.8047443 -44.0398 -0.1307829
      CHANNELS 3 Zrotation Xrotation Yrotation
      JOINT left_tibia_foot
      {
        OFFSET -4.370144 -48.10324 -4.275266
        CHANNELS 3 Zrotation Xrotation Yrotation
        End Site
        {
          OFFSET 0 -5 15
        }
      }
    }
  }
  JOINT pelvis_spine1
  {
    OFFSET 0 6.468898 -3.129235
    CHANNELS 3 Zrotation Xrotation Yrotation
    JOINT spine1
    {
      OFFSET 0 23.15396 4.99043
      CHANNELS 3 Zrotation Xrotation Yrotation
      JOINT spine2
      {
        OFFSET 0 20.79997 -5.064912
        CHANNELS 3 Zrotation Xrotation Yrotation
        JOINT neck
        {
          OFFSET 0 14.38658 9.616178
          CHANNELS 3 Zrotation Xrotation Yrotation
          End Site
          {
            OFFSET 0 20 0
          }
        }
      }
      JOINT right_manubrium
      {
        OFFSET -5.722621 16.35077 3.967754
        CHANNELS 3 Zrotation Xrotation Yrotation
        JOINT right_clavicle
        {
          OFFSET -13.16364 1.694482 -4.693211
          CHANNELS 3 Zrotation Xrotation Yrotation
          JOINT right_humerus
          {
            OFFSET -28.5034 -0.3100689 -2.792744
            CHANNELS 3 Zrotation Xrotation Yrotation
            JOINT right_radius
            {
              OFFSET -25.15693 0.02248979 -1.271978
              CHANNELS 3 Zrotation Xrotation Yrotation
              End Site
              {
                OFFSET -15 0 0
              }
            }
          }
        }
      }
      JOINT left_manubrium
      {
        OFFSET 5.722621 16.35077 3.967754
        CHANNELS 3 Zrotation Xrotation Yrotation
        JOINT left_clavicle
        {
          OFFSET 13.16364 1.694482 -4.693211
          CHANNELS 3 Zrotation Xrotation Yrotation
          JOINT left_humerus
          {
            OFFSET 29.39168 -1.063119 -2.237045
            CHANNELS 3 Zrotation Xrotation Yrotation
            JOINT left_radius
            {
              OFFSET 24.59957 -0.9528479 0.9047498
              CHANNELS 3 Zrotation Xrotation Yrotation
              End Site
              {
                OFFSET 15 -0 -0
              }
            }
          }
        }
      }
    }
  }
}
MOTION
Frames: 15
Frame Time: 0.0416666666667
0 103.5113 0 2.189443 -1.172644 0.2746445 1.228587 -10.12089 8.681153 -0 34.06912 -0 -5.27001 -17.87045 -2.264763 -8.049061 10.09932 -23.47262 -0 5.161101 -0 7.667589 -16.17967 26.55265 -4.354921 -5.047816 4.965984 2.034914 9.213211 -7.738043 0.8336554 22.7925 7.186902 3.268005 -23.1075 8.805354 6.369795 -19.74654 11.58163 86.31215 35.94691 -19.80563 -0 0 16.22373 -7.571254 8.24135 4.613104 5.516569 -19.47773 -1.71244 -94.77172 29.7467 22.88514 0 0 -16.05614 3.506964 17.87747 9.536315
0.3448486 103.4776 1.39202 2.061674 -1.001571 0.4557939 1.448255 -11.14696 8.47055 -0 32.81335 -0 -5.316258 -17.29013 -2.086467 -7.946518 10.24612 -23.28507 -0 5.271008 -0 7.502855 -16.50203 26.32396 -4.326088 -4.850584 4.939087 2.147154 9.184522 -7.742549 0.8550623 22.65066 7.226896 3.325333 -23.25156 8.829998 6.345095 -19.66116 11.59143 86.30627 35.926 -19.8865 -0 0 16.05875 -7.597575 8.27152 4.624577 5.623838 -19.51527 -1.749766 -94.64646 29.70622 22.64185 0 0 -16.46796 3.57204 17.74167 9.461598
0.707623 103.3677 2.910315 1.898905 -0.7407752 0.5851909 1.712909 -12.54668 8.138704 -0 30.60253 -0 -5.370616 -16.41218 -1.74005 -7.826876 10.44266 -22.9886 -0 5.478007 -0 7.245431 -16.96023 25.9623 -4.299036 -4.584429 4.921437 2.307581 9.14457 -7.736068 0.8902097 22.44358 7.278875 3.409828 -23.45319 8.86101 6.300116 -19.52501 11.60131 86.31124 35.8951 -20.0174 -0 0 15.80162 -7.633576 8.318696 4.637253 5.793129 -19.5738 -1.802872 -94.45409 29.64644 22.25828 0 0 -17.08831 3.663517 17.55046 9.345273
1.093472 103.1572 4.606599 1.729434 -0.3870998 0.6772473 1.973179 -14.16054 7.690892 -0 27.36835 -0 -5.426322 -15.26381 -1.209046 -7.717371 10.68097 -22.56881 -0 5.8428 -0 6.876357 -17.51593 25.44049 -4.276175 -4.285731 4.917047 2.493666 9.094855 -7.714683 0.9378251 22.19264 7.336653 3.516291 -23.69239 8.893804 6.22646 -19.33252 11.59892 86.34979 35.85478 -20.20588 -0 0 15.44874 -7.676177 8.385625 4.650888 6.016875 -19.66132 -1.862684 -94.18827 29.56978 21.73884 0 0 -17.87849 3.7689 17.31099 9.197913
1.505496 102.8317 6.53869 1.581293 0.06051298 0.7727093 2.182419 -15.79825 7.137903 -0 23.13216 -0 -5.481508 -13.89135 -0.4969062 -7.643281 10.954 -22.00978 -0 6.446914 -0 6.368042 -18.11397 24.72321 -4.253631 -3.997085 4.924024 2.676835 9.036328 -7.67802 0.994336 21.92577 7.393916 3.637276 -23.94507 8.922751 6.116052 -19.07797 11.56943 86.44948 35.80571 -20.45975 -0 0 14.99728 -7.722271 8.47581 4.666493 6.279521 -19.7863 -1.9185 -93.84371 29.47868 21.09838 0 0 -18.77934 3.871968 17.02946 9.036704
1.94432 102.3928 8.765876 1.461984 0.5904464 0.9252694 2.322826 -17.2772 6.506191 -0 18.12785 -0 -5.55122 -12.38091 0.3547329 -7.604896 11.24284 -21.30895 -0 7.380765 -0 5.688757 -18.66604 23.78335 -4.213689 -3.752214 4.932886 2.83658 8.969215 -7.63428 1.051679 21.66565 7.446071 3.76275 -24.1899 8.939845 5.971231 -18.76117 11.50692 86.62715 35.74871 -20.7796 -0 0 14.45086 -7.770964 8.592003 4.686069 6.551469 -19.94384 -1.967694 -93.43363 29.37306 20.37725 0 0 -19.71112 3.956515 16.71118 8.884141
2.406076 101.874 11.34684 1.350466 1.172891 1.186168 2.416545 -18.37285 5.853718 -0 12.91564 -0 -5.671974 -10.8931 1.250301 -7.563492 11.50462 -20.47617 -0 8.795756 -0 4.786608 -19.00621 22.59051 -4.111838 -3.581147 4.92154 2.960324 8.891989 -7.606095 1.092904 21.43115 7.489782 3.876777 -24.40453 8.930221 5.809561 -18.38591 11.41661 86.89091 35.68565 -21.15987 -0 0 13.81671 -7.824477 8.737757 4.713239 6.774803 -20.10744 -2.020869 -92.99943 29.24998 19.65899 0 0 -20.54688 4.001825 16.35933 8.776108
2.882411 101.347 14.33844 1.212169 1.764749 1.593827 2.509898 -18.84102 5.255977 -0 8.19995 -0 -5.881032 -9.624356 2.072992 -7.462011 11.67606 -19.52875 -0 10.88347 -0 3.611565 -18.92337 21.12388 -3.892417 -3.50935 4.865854 3.039875 8.803662 -7.619925 1.097141 21.23916 7.521904 3.960717 -24.56558 8.875197 5.656154 -17.95885 11.31083 87.24181 35.61911 -21.58901 -0 0 13.10522 -7.887771 8.916993 4.753053 6.878928 -20.23961 -2.095551 -92.59585 29.10648 19.04725 0 0 -21.14043 3.985958 15.97578 8.753571
3.366614 100.9021 17.78486 1.029357 2.310576 2.160288 2.634507 -18.52451 4.764959 -0 4.42264 -0 -6.186762 -8.710963 2.750968 -7.273157 11.6654 -18.49325 -0 13.79302 -0 2.176483 -18.25802 19.42062 -3.531914 -3.538723 4.771581 3.071345 8.71238 -7.67629 1.053025 21.1025 7.538146 4.002663 -24.65312 8.761747 5.529748 -17.49475 11.20827 87.66175 35.55154 -22.03797 -0 0 12.34036 -7.970413 9.13057 4.812403 6.823627 -20.31304 -2.20195 -92.26402 28.9412 18.61314 0 0 -21.40966 3.898497 15.56426 8.836992
3.860021 100.624 21.69515 0.8176509 2.720908 2.844456 2.786322 -17.32093 4.402776 -0 1.699303 -0 -6.568738 -8.233614 3.26546 -7.015537 11.29361 -17.4092 -0 17.69125 -0 0.5682529 -16.88621 17.59082 -3.050812 -3.638466 4.696639 3.051928 8.644263 -7.731401 0.9605194 21.03598 7.530098 3.997599 -24.64219 8.580497 5.442113 -17.02231 11.14164 88.10175 35.48742 -22.4428 -0 0 11.57092 -8.093116 9.376352 4.904241 6.604298 -20.31072 -2.338744 -92.03387 28.75147 18.3953 0 0 -21.34563 3.740357 15.13084 9.023342
4.371163 100.5809 26.02918 0.6223154 2.889035 3.539922 2.932943 -15.15279 4.171066 0 -0.05018571 0 -6.991735 -8.241102 3.627987 -6.729385 10.32222 -16.32115 -0 22.7391 -0 -1.082068 -14.72595 15.78995 -2.497671 -3.757746 4.728307 2.978558 8.63514 -7.716483 0.8265722 21.05692 7.486615 3.945159 -24.50369 8.324145 5.399769 -16.58016 11.14999 88.49255 35.4336 -22.7164 -0 0 10.86248 -8.285421 9.650101 5.046595 6.238332 -20.22274 -2.496388 -91.92729 28.53292 18.41244 0 0 -20.98247 3.518811 14.68267 9.296021
4.907808 100.8204 30.70822 0.5033883 2.754565 4.116917 3.024288 -12.02742 4.046562 0 -1.031273 0 -7.411605 -8.72664 3.869614 -6.442639 8.574405 -15.25882 -0 28.852 -0 -2.630612 -11.86892 14.17949 -1.938255 -3.84963 4.928235 2.849314 8.706359 -7.583671 0.6643423 21.17692 7.399126 3.852009 -24.22052 7.993465 5.398875 -16.20997 11.25081 88.76511 35.39535 -22.77885 -0 0 10.28047 -8.577832 9.943623 5.257555 5.763397 -20.05549 -2.658493 -91.94115 28.28249 18.65119 0 0 -20.3862 3.248088 14.22704 9.629751
5.472349 101.348 35.6254 0.5394358 2.309537 4.492365 2.977789 -8.031112 3.975073 0 -1.600264 0 -7.759626 -9.628423 4.049791 -6.170885 5.905699 -14.23239 -0 35.54527 -0 -3.915447 -8.684551 12.93242 -1.477336 -3.870061 5.327836 2.660003 8.859798 -7.312899 0.4970703 21.40611 7.259245 3.733889 -23.7845 7.597091 5.422194 -15.97157 11.43116 88.82973 35.37496 -22.53393 -0 0 9.910427 -9.015258 10.24132 5.563212 5.24725 -19.83871 -2.796855 -92.03767 27.99785 19.05992 0 0 -19.66588 2.952453 13.77237 9.986969
6.063871 102.109 40.65342 0.809598 1.577331 4.674311 2.699962 -3.292526 3.897972 0 -2.192629 0 -7.949312 -10.85593 4.247445 -5.919642 2.188962 -13.24004 -0 42.07031 -0 -4.792821 -5.708465 12.19919 -1.242039 -3.780614 5.938983 2.404291 9.084667 -6.901135 0.3537268 21.75301 7.05881 3.611346 -23.19224 7.148275 5.44423 -15.93728 11.65991 88.58163 35.37008 -21.87093 -0 0 9.854304 -9.653996 10.52173 5.996341 4.774879 -19.61503 -2.877351 -92.1601 27.67736 19.56738 0 0 -18.95311 2.660697 13.32793 10.32438
6.682302 103.0034 45.66861 1.328021 0.6195305 4.739211 2.164333 2.008471 3.800026 0 -3.07816 0 -7.924073 -12.31402 4.516903 -5.666599 -2.53856 -12.27082 -0 47.71585 -0 -5.225371 -3.315294 12.02703 -1.292412 -3.579252 6.734472 2.082331 9.358277 -6.36712 0.2515409 22.2044 6.801148 3.49841 -22.45857 6.666312 5.438933 -16.14618 11.90405 87.96641 35.3671 -20.73602 -0 0 10.17639 -10.52521 10.76518 6.575353 4.406383 -19.41068 -2.881577 -92.26874 27.32401 20.1209 0 0 -18.33156 2.38963 12.90039 10.61701
